<svg width="200" height="200" viewBox="0 0 200 200" xmlns="http://www.w3.org/2000/svg" xmlns:xlink="http://www.w3.org/1999/xlink">
  <defs>
    <!-- Neon Glow Filter (Red) -->
    <filter id="neon-glow-red" x="-50%" y="-50%" width="200%" height="200%">
      <feGaussianBlur in="SourceGraphic" stdDeviation="4" result="blur"/>
      <feColorMatrix in="blur" type="matrix" values="
        1 0 0 0 0
        0 1 0 0 0
        0 0 1 0 0
        0 0 0 5 0" result="coloredBlur"/>
      <feMerge>
        <feMergeNode in="coloredBlur"/>
        <feMergeNode in="SourceGraphic"/>
      </feMerge>
    </filter>
    
    <!-- Pattern for subtle scan lines -->
    <pattern id="scanlines" x="0" y="0" width="2" height="4" patternUnits="userSpaceOnUse">
      <rect x="0" y="0" width="2" height="1" fill="#00bcd4" opacity="0.1"/>
    </pattern>

    <!-- Linear gradient for holographic depth effect (signature red) -->
    <linearGradient id="hologradient" x1="0%" y1="0%" x2="0%" y2="100%">
      <stop offset="0%" stop-color="#e74c3c" stop-opacity="0.3"/>
      <stop offset="100%" stop-color="#e74c3c" stop-opacity="0.1"/>
    </linearGradient>

    <!-- Radial gradient for a subtle central holographic glow/highlight -->
    <radialGradient id="hologradient-center" cx="50%" cy="50%" r="50%" fx="50%" fy="50%">
      <stop offset="0%" stop-color="#ffdddd" stop-opacity="0.15"/>
      <stop offset="100%" stop-color="#e74c3c" stop-opacity="0"/>
    </radialGradient>

  </defs>

  <!-- Dark Background -->
  <rect x="0" y="0" width="200" height="200" fill="#0a0a14"/>

  <!-- Character Elements (Francisco - Holographic Power Engineer) -->
  <g transform="translate(0, 20)">
    <!-- Body/Shoulders - Sleek and angular holographic form -->
    <path d="M 50 160 Q 30 140 30 110 L 40 80 H 160 L 170 110 Q 170 140 150 160 Z"
          fill="url(#hologradient)" stroke="#e74c3c" stroke-width="1.5" stroke-dasharray="4 2" opacity="0.8"/>
    <path d="M 50 160 Q 30 140 30 110 L 40 80 H 160 L 170 110 Q 170 140 150 160 Z"
          fill="none" stroke="#e74c3c" stroke-width="0.5" stroke-dasharray="1 1" opacity="0.6"/>

    <!-- Neck component -->
    <rect x="90" y="70" width="20" height="20" fill="url(#hologradient)" stroke="#e74c3c" stroke-width="1" opacity="0.8"/>

    <!-- Head structure -->
    <path d="M 75 70 L 65 50 H 135 L 125 70 Z" fill="url(#hologradient)" stroke="#e74c3c" stroke-width="1.5" stroke-dasharray="4 2" opacity="0.8"/>
    <path d="M 75 70 L 65 50 H 135 L 125 70 Z" fill="none" stroke="#e74c3c" stroke-width="0.5" stroke-dasharray="1 1" opacity="0.6"/>
    
    <rect x="70" y="30" width="60" height="20" rx="3" ry="3" fill="url(#hologradient)" stroke="#e74c3c" stroke-width="1.5" stroke-dasharray="4 2" opacity="0.8"/>
    <rect x="70" y="30" width="60" height="20" rx="3" ry="3" fill="none" stroke="#e74c3c" stroke-width="0.5" stroke-dasharray="1 1" opacity="0.6"/>

    <!-- Visor/Eyes - Brighter, glowing red for visual focus -->
    <rect x="80" y="35" width="40" height="10" rx="2" ry="2" fill="#ff4444" filter="url(#neon-glow-red)" opacity="0.9"/>
    <rect x="80" y="35" width="40" height="10" rx="2" ry="2" fill="none" stroke="#ff00ff" stroke-width="0.5" opacity="0.5"/>

    <!-- Collar/Shoulder Armor - Angular details in signature red -->
    <path d="M 40 80 L 30 90 L 35 100 L 45 90 Z" fill="#e74c3c" opacity="0.4" stroke="#e74c3c" stroke-width="0.5"/>
    <path d="M 160 80 L 170 90 L 165 100 L 155 90 Z" fill="#e74c3c" opacity="0.4" stroke="#e74c3c" stroke-width="0.5"/>
    <rect x="40" y="80" width="120" height="5" fill="#e74c3c" opacity="0.5"/>

    <!-- Chest plate details -->
    <path d="M 70 90 L 60 100 V 120 L 70 130 H 130 L 140 120 V 100 L 130 90 Z"
          fill="url(#hologradient)" stroke="#e74c3c" stroke-width="1" stroke-dasharray="3 1" opacity="0.7"/>

    <!-- Energy Crackle around hands/shoulders (primary glow elements) -->
    <path d="M 25 105 L 15 115 L 20 125 L 30 115 L 25 105 Z" fill="#ff4444" filter="url(#neon-glow-red)" opacity="0.8"/>
    <path d="M 35 120 L 25 130 L 30 140 L 40 130 L 35 120 Z" fill="#ff4444" filter="url(#neon-glow-red)" opacity="0.8"/>
    <path d="M 175 105 L 185 115 L 180 125 L 170 115 L 175 105 Z" fill="#ff4444" filter="url(#neon-glow-red)" opacity="0.8"/>
    <path d="M 165 120 L 175 130 L 170 140 L 160 130 L 165 120 Z" fill="#ff4444" filter="url(#neon-glow-red)" opacity="0.8"/>
    
    <!-- More subtle energy lines -->
    <path d="M 40 100 Q 50 90 60 100 Q 70 90 80 100" stroke="#ff4444" stroke-width="2" fill="none" filter="url(#neon-glow-red)" opacity="0.7"/>
    <path d="M 160 100 Q 150 90 140 100 Q 130 90 120 100" stroke="#ff4444" stroke-width="2" fill="none" filter="url(#neon-glow-red)" opacity="0.7"/>

    <!-- Subtle central glow for holographic effect -->
    <circle cx="100" cy="110" r="40" fill="url(#hologradient-center)"/>

    <!-- Scan lines overlay using pattern and individual lines -->
    <rect x="0" y="0" width="200" height="200" fill="url(#scanlines)" opacity="0.3"/>
    <rect x="0" y="50" width="200" height="1" fill="#00bcd4" opacity="0.08"/>
    <rect x="0" y="100" width="200" height="1" fill="#00bcd4" opacity="0.08"/>
    <rect x="0" y="150" width="200" height="1" fill="#00bcd4" opacity="0.08"/>

    <!-- Holographic grid/UI elements -->
    <line x1="50" y1="170" x2="150" y2="170" stroke="#00bcd4" stroke-width="0.5" opacity="0.2"/>
    <line x1="50" y1="175" x2="150" y2="175" stroke="#00bcd4" stroke-width="0.5" opacity="0.2"/>
    <line x1="50" y1="180" x2="150" y2="180" stroke="#00bcd4" stroke-width="0.5" opacity="0.2"/>

    <path d="M 30 170 L 35 165 L 40 170 L 35 175 Z" fill="#00ff88" opacity="0.1"/>
    <path d="M 170 170 L 165 165 L 160 170 L 165 175 Z" fill="#00ff88" opacity="0.1"/>
    
  </g>

</svg>