<svg xmlns="http://www.w3.org/2000/svg" viewBox="0 0 200 200">
  <defs><filter id="glow" x="-50%" y="-50%" width="200%" height="200%">
    <feGaussianBlur in="SourceGraphic" stdDeviation="3" result="blur"/>
    <feFlood flood-color="#ffcc00" flood-opacity="0.6" result="color"/>
    <feComposite in="color" in2="blur" operator="in" result="glow"/>
    <feMerge><feMergeNode in="glow"/><feMergeNode in="glow"/><feMergeNode in="SourceGraphic"/></feMerge>
  </filter></defs>
  <rect width="200" height="200" fill="#0a0a14"/>
  <g opacity="0.15"><line x1="20" y1="25" x2="180" y2="25" stroke="#ffcc00" stroke-width="0.3"/><line x1="20" y1="30" x2="180" y2="30" stroke="#ffcc00" stroke-width="0.3"/><line x1="20" y1="35" x2="180" y2="35" stroke="#ffcc00" stroke-width="0.3"/><line x1="20" y1="40" x2="180" y2="40" stroke="#ffcc00" stroke-width="0.3"/><line x1="20" y1="45" x2="180" y2="45" stroke="#ffcc00" stroke-width="0.3"/><line x1="20" y1="50" x2="180" y2="50" stroke="#ffcc00" stroke-width="0.3"/><line x1="20" y1="55" x2="180" y2="55" stroke="#ffcc00" stroke-width="0.3"/><line x1="20" y1="60" x2="180" y2="60" stroke="#ffcc00" stroke-width="0.3"/><line x1="20" y1="65" x2="180" y2="65" stroke="#ffcc00" stroke-width="0.3"/><line x1="20" y1="70" x2="180" y2="70" stroke="#ffcc00" stroke-width="0.3"/><line x1="20" y1="75" x2="180" y2="75" stroke="#ffcc00" stroke-width="0.3"/><line x1="20" y1="80" x2="180" y2="80" stroke="#ffcc00" stroke-width="0.3"/><line x1="20" y1="85" x2="180" y2="85" stroke="#ffcc00" stroke-width="0.3"/><line x1="20" y1="90" x2="180" y2="90" stroke="#ffcc00" stroke-width="0.3"/><line x1="20" y1="95" x2="180" y2="95" stroke="#ffcc00" stroke-width="0.3"/><line x1="20" y1="100" x2="180" y2="100" stroke="#ffcc00" stroke-width="0.3"/><line x1="20" y1="105" x2="180" y2="105" stroke="#ffcc00" stroke-width="0.3"/><line x1="20" y1="110" x2="180" y2="110" stroke="#ffcc00" stroke-width="0.3"/><line x1="20" y1="115" x2="180" y2="115" stroke="#ffcc00" stroke-width="0.3"/><line x1="20" y1="120" x2="180" y2="120" stroke="#ffcc00" stroke-width="0.3"/><line x1="20" y1="125" x2="180" y2="125" stroke="#ffcc00" stroke-width="0.3"/><line x1="20" y1="130" x2="180" y2="130" stroke="#ffcc00" stroke-width="0.3"/><line x1="20" y1="135" x2="180" y2="135" stroke="#ffcc00" stroke-width="0.3"/><line x1="20" y1="140" x2="180" y2="140" stroke="#ffcc00" stroke-width="0.3"/><line x1="20" y1="145" x2="180" y2="145" stroke="#ffcc00" stroke-width="0.3"/><line x1="20" y1="150" x2="180" y2="150" stroke="#ffcc00" stroke-width="0.3"/><line x1="20" y1="155" x2="180" y2="155" stroke="#ffcc00" stroke-width="0.3"/><line x1="20" y1="160" x2="180" y2="160" stroke="#ffcc00" stroke-width="0.3"/><line x1="20" y1="165" x2="180" y2="165" stroke="#ffcc00" stroke-width="0.3"/><line x1="20" y1="170" x2="180" y2="170" stroke="#ffcc00" stroke-width="0.3"/><line x1="20" y1="175" x2="180" y2="175" stroke="#ffcc00" stroke-width="0.3"/></g>
  <rect x="25" y="30" width="150" height="115" rx="6" fill="none" stroke="#ffcc00" stroke-width="1.5" stroke-dasharray="8,4" filter="url(#glow)"/>
  <polyline points="35,125 60,110 85,115 100,75 125,85 150,50 170,45" fill="none" stroke="#ffcc00" stroke-width="1.2" stroke-dasharray="6,3"/>
  <circle cx="170" cy="45" r="4" fill="#ffcc00" opacity="0.5"/>
  <text x="100" y="165" text-anchor="middle" fill="#ffcc00" font-size="7" font-family="monospace">INTEREST RATE: 2%</text>
  <rect x="30" y="175" width="40" height="4" rx="2" fill="#ffcc00" opacity="0.4">
    <animate attributeName="width" values="40;100;40" dur="3s" repeatCount="indefinite"/>
  </rect>
</svg>