<svg xmlns="http://www.w3.org/2000/svg" viewBox="0 0 200 200">
  <defs><filter id="glow" x="-50%" y="-50%" width="200%" height="200%">
    <feGaussianBlur in="SourceGraphic" stdDeviation="3" result="blur"/>
    <feFlood flood-color="#ff9800" flood-opacity="0.6" result="color"/>
    <feComposite in="color" in2="blur" operator="in" result="glow"/>
    <feMerge><feMergeNode in="glow"/><feMergeNode in="glow"/><feMergeNode in="SourceGraphic"/></feMerge>
  </filter></defs>
  <rect width="200" height="200" fill="#0a0a14"/>
  <g opacity="0.15"><line x1="20" y1="25" x2="180" y2="25" stroke="#ff9800" stroke-width="0.3"/><line x1="20" y1="30" x2="180" y2="30" stroke="#ff9800" stroke-width="0.3"/><line x1="20" y1="35" x2="180" y2="35" stroke="#ff9800" stroke-width="0.3"/><line x1="20" y1="40" x2="180" y2="40" stroke="#ff9800" stroke-width="0.3"/><line x1="20" y1="45" x2="180" y2="45" stroke="#ff9800" stroke-width="0.3"/><line x1="20" y1="50" x2="180" y2="50" stroke="#ff9800" stroke-width="0.3"/><line x1="20" y1="55" x2="180" y2="55" stroke="#ff9800" stroke-width="0.3"/><line x1="20" y1="60" x2="180" y2="60" stroke="#ff9800" stroke-width="0.3"/><line x1="20" y1="65" x2="180" y2="65" stroke="#ff9800" stroke-width="0.3"/><line x1="20" y1="70" x2="180" y2="70" stroke="#ff9800" stroke-width="0.3"/><line x1="20" y1="75" x2="180" y2="75" stroke="#ff9800" stroke-width="0.3"/><line x1="20" y1="80" x2="180" y2="80" stroke="#ff9800" stroke-width="0.3"/><line x1="20" y1="85" x2="180" y2="85" stroke="#ff9800" stroke-width="0.3"/><line x1="20" y1="90" x2="180" y2="90" stroke="#ff9800" stroke-width="0.3"/><line x1="20" y1="95" x2="180" y2="95" stroke="#ff9800" stroke-width="0.3"/><line x1="20" y1="100" x2="180" y2="100" stroke="#ff9800" stroke-width="0.3"/><line x1="20" y1="105" x2="180" y2="105" stroke="#ff9800" stroke-width="0.3"/><line x1="20" y1="110" x2="180" y2="110" stroke="#ff9800" stroke-width="0.3"/><line x1="20" y1="115" x2="180" y2="115" stroke="#ff9800" stroke-width="0.3"/><line x1="20" y1="120" x2="180" y2="120" stroke="#ff9800" stroke-width="0.3"/><line x1="20" y1="125" x2="180" y2="125" stroke="#ff9800" stroke-width="0.3"/><line x1="20" y1="130" x2="180" y2="130" stroke="#ff9800" stroke-width="0.3"/><line x1="20" y1="135" x2="180" y2="135" stroke="#ff9800" stroke-width="0.3"/><line x1="20" y1="140" x2="180" y2="140" stroke="#ff9800" stroke-width="0.3"/><line x1="20" y1="145" x2="180" y2="145" stroke="#ff9800" stroke-width="0.3"/><line x1="20" y1="150" x2="180" y2="150" stroke="#ff9800" stroke-width="0.3"/><line x1="20" y1="155" x2="180" y2="155" stroke="#ff9800" stroke-width="0.3"/><line x1="20" y1="160" x2="180" y2="160" stroke="#ff9800" stroke-width="0.3"/><line x1="20" y1="165" x2="180" y2="165" stroke="#ff9800" stroke-width="0.3"/><line x1="20" y1="170" x2="180" y2="170" stroke="#ff9800" stroke-width="0.3"/><line x1="20" y1="175" x2="180" y2="175" stroke="#ff9800" stroke-width="0.3"/></g>
  <rect x="35" y="60" width="130" height="95" rx="6" fill="none" stroke="#ff9800" stroke-width="1.5" stroke-dasharray="8,4" filter="url(#glow)"/>
  <rect x="40" y="55" width="120" height="12" fill="none" stroke="#ff9800" stroke-width="1" stroke-dasharray="4,4"/>
  <circle cx="100" cy="105" r="22" fill="none" stroke="#ff9800" stroke-width="1.2" stroke-dasharray="6,4"/>
  <text x="100" y="112" text-anchor="middle" fill="#ff9800" font-size="18" font-family="serif" opacity="0.6">$</text>
  <text x="100" y="170" text-anchor="middle" fill="#ff9800" font-size="6" font-family="monospace">FUNDING GENERATOR</text>
  <rect x="30" y="175" width="40" height="4" rx="2" fill="#ff9800" opacity="0.4">
    <animate attributeName="width" values="40;80;40" dur="2s" repeatCount="indefinite"/>
  </rect>
</svg>