<svg xmlns="http://www.w3.org/2000/svg" viewBox="0 0 200 200">
  <defs><filter id="glow" x="-50%" y="-50%" width="200%" height="200%">
    <feGaussianBlur in="SourceGraphic" stdDeviation="3" result="blur"/>
    <feFlood flood-color="#76ff03" flood-opacity="0.6" result="color"/>
    <feComposite in="color" in2="blur" operator="in" result="glow"/>
    <feMerge><feMergeNode in="glow"/><feMergeNode in="glow"/><feMergeNode in="SourceGraphic"/></feMerge>
  </filter><pattern id="gg" width="20" height="20" patternUnits="userSpaceOnUse"><rect width="20" height="20" fill="none" stroke="#76ff03" stroke-width="0.15" opacity="0.1"/></pattern></defs>
  <rect width="200" height="200" fill="#060614"/><rect width="200" height="200" fill="url(#gg)"/>
  <rect x="25" y="50" width="150" height="85" fill="none" stroke="#76ff03" stroke-width="1" stroke-dasharray="4,2"/>
  <circle cx="60" cy="92" r="18" fill="none" stroke="#76ff03" stroke-width="0.8" stroke-dasharray="4,3"/>
  <circle cx="140" cy="92" r="18" fill="none" stroke="#76ff03" stroke-width="0.8" stroke-dasharray="4,3"/>
  <text x="60" y="96" text-anchor="middle" fill="#76ff03" font-size="6" font-family="monospace">FAN-1</text>
  <text x="140" y="96" text-anchor="middle" fill="#76ff03" font-size="6" font-family="monospace">FAN-2</text>
  <rect x="85" y="65" width="30" height="15" fill="none" stroke="#76ff03" stroke-width="0.8"/>
  <text x="100" y="76" text-anchor="middle" fill="#76ff03" font-size="7" font-family="monospace">VRAM</text>
  <text x="100" y="155" text-anchor="middle" fill="#76ff03" font-size="7" font-family="monospace">5 TFLOPS OUTPUT</text>
  <g stroke="#76ff03" stroke-width="0.5" opacity="0.4">
    <line x1="30" y1="140" x2="30" y2="160"/><line x1="45" y1="140" x2="45" y2="160"/><line x1="60" y1="140" x2="60" y2="160"/>
    <line x1="80" y1="140" x2="80" y2="160"/><line x1="95" y1="140" x2="95" y2="160"/><line x1="110" y1="140" x2="110" y2="160"/>
    <line x1="130" y1="140" x2="130" y2="160"/><line x1="145" y1="140" x2="145" y2="160"/><line x1="160" y1="140" x2="160" y2="160"/>
  </g>
  <text x="15" y="15" fill="#76ff03" font-size="7" font-family="monospace" opacity="0.4">GPU-SCHEMATIC</text>
  <rect x="5" y="5" width="190" height="190" fill="none" stroke="#76ff03" stroke-width="0.5" opacity="0.3"/>
</svg>