<svg xmlns="http://www.w3.org/2000/svg" viewBox="0 0 200 200">
  <defs><filter id="glow" x="-50%" y="-50%" width="200%" height="200%">
    <feGaussianBlur in="SourceGraphic" stdDeviation="3" result="blur"/>
    <feFlood flood-color="#9933ff" flood-opacity="0.6" result="color"/>
    <feComposite in="color" in2="blur" operator="in" result="glow"/>
    <feMerge><feMergeNode in="glow"/><feMergeNode in="glow"/><feMergeNode in="SourceGraphic"/></feMerge>
  </filter></defs>
  <rect width="200" height="200" fill="#0a0a14"/>
  <g opacity="0.2"><line x1="20" y1="20" x2="180" y2="20" stroke="#9933ff" stroke-width="0.3"/><line x1="20" y1="26" x2="180" y2="26" stroke="#9933ff" stroke-width="0.3"/><line x1="20" y1="32" x2="180" y2="32" stroke="#9933ff" stroke-width="0.3"/><line x1="20" y1="38" x2="180" y2="38" stroke="#9933ff" stroke-width="0.3"/><line x1="20" y1="44" x2="180" y2="44" stroke="#9933ff" stroke-width="0.3"/><line x1="20" y1="50" x2="180" y2="50" stroke="#9933ff" stroke-width="0.3"/><line x1="20" y1="56" x2="180" y2="56" stroke="#9933ff" stroke-width="0.3"/><line x1="20" y1="62" x2="180" y2="62" stroke="#9933ff" stroke-width="0.3"/><line x1="20" y1="68" x2="180" y2="68" stroke="#9933ff" stroke-width="0.3"/><line x1="20" y1="74" x2="180" y2="74" stroke="#9933ff" stroke-width="0.3"/><line x1="20" y1="80" x2="180" y2="80" stroke="#9933ff" stroke-width="0.3"/><line x1="20" y1="86" x2="180" y2="86" stroke="#9933ff" stroke-width="0.3"/><line x1="20" y1="92" x2="180" y2="92" stroke="#9933ff" stroke-width="0.3"/><line x1="20" y1="98" x2="180" y2="98" stroke="#9933ff" stroke-width="0.3"/><line x1="20" y1="104" x2="180" y2="104" stroke="#9933ff" stroke-width="0.3"/><line x1="20" y1="110" x2="180" y2="110" stroke="#9933ff" stroke-width="0.3"/><line x1="20" y1="116" x2="180" y2="116" stroke="#9933ff" stroke-width="0.3"/><line x1="20" y1="122" x2="180" y2="122" stroke="#9933ff" stroke-width="0.3"/><line x1="20" y1="128" x2="180" y2="128" stroke="#9933ff" stroke-width="0.3"/><line x1="20" y1="134" x2="180" y2="134" stroke="#9933ff" stroke-width="0.3"/><line x1="20" y1="140" x2="180" y2="140" stroke="#9933ff" stroke-width="0.3"/><line x1="20" y1="146" x2="180" y2="146" stroke="#9933ff" stroke-width="0.3"/><line x1="20" y1="152" x2="180" y2="152" stroke="#9933ff" stroke-width="0.3"/><line x1="20" y1="158" x2="180" y2="158" stroke="#9933ff" stroke-width="0.3"/><line x1="20" y1="164" x2="180" y2="164" stroke="#9933ff" stroke-width="0.3"/><line x1="20" y1="170" x2="180" y2="170" stroke="#9933ff" stroke-width="0.3"/><line x1="20" y1="176" x2="180" y2="176" stroke="#9933ff" stroke-width="0.3"/><line x1="20" y1="182" x2="180" y2="182" stroke="#9933ff" stroke-width="0.3"/></g>
  <circle cx="100" cy="100" r="30" fill="none" stroke="#9933ff" stroke-width="1.5" stroke-dasharray="8,4" filter="url(#glow)"/>
  <circle cx="100" cy="100" r="50" fill="none" stroke="#9933ff" stroke-width="0.8" opacity="0.3" stroke-dasharray="4,8"/>
  <circle cx="100" cy="100" r="70" fill="none" stroke="#9933ff" stroke-width="0.5" opacity="0.15" stroke-dasharray="2,10"/>
  <circle cx="100" cy="100" r="10" fill="#9933ff" opacity="0.3"/>
  <text x="100" y="104" text-anchor="middle" fill="#9933ff" font-size="8" font-family="monospace">HUB</text>
  <g fill="none" stroke="#9933ff" stroke-width="1" opacity="0.6">
    <line x1="130" y1="100" x2="160" y2="70"/><line x1="70" y1="100" x2="40" y2="130"/>
    <line x1="100" y1="70" x2="100" y2="35"/><line x1="100" y1="130" x2="100" y2="165"/>
    <line x1="125" y1="120" x2="155" y2="150"/><line x1="75" y1="80" x2="45" y2="50"/>
  </g>
  <g>
    <circle cx="160" cy="70" r="5" fill="none" stroke="#9933ff" stroke-width="1"/><circle cx="40" cy="130" r="5" fill="none" stroke="#9933ff" stroke-width="1"/>
    <circle cx="100" cy="35" r="5" fill="none" stroke="#9933ff" stroke-width="1"/><circle cx="100" cy="165" r="5" fill="none" stroke="#9933ff" stroke-width="1"/>
    <circle cx="155" cy="150" r="5" fill="none" stroke="#9933ff" stroke-width="1"/><circle cx="45" cy="50" r="5" fill="none" stroke="#9933ff" stroke-width="1"/>
  </g>
  <rect x="30" y="170" width="40" height="4" rx="2" fill="#9933ff" opacity="0.4">
    <animate attributeName="width" values="40;70;40" dur="3s" repeatCount="indefinite"/>
  </rect>
</svg>