<svg xmlns="http://www.w3.org/2000/svg" viewBox="0 0 200 200">
  <defs><filter id="glow" x="-50%" y="-50%" width="200%" height="200%">
    <feGaussianBlur in="SourceGraphic" stdDeviation="3" result="blur"/>
    <feFlood flood-color="#4488ff" flood-opacity="0.6" result="color"/>
    <feComposite in="color" in2="blur" operator="in" result="glow"/>
    <feMerge><feMergeNode in="glow"/><feMergeNode in="glow"/><feMergeNode in="SourceGraphic"/></feMerge>
  </filter>
    <pattern id="egrid" width="20" height="20" patternUnits="userSpaceOnUse">
      <rect width="20" height="20" fill="none" stroke="#4488ff" stroke-width="0.2" opacity="0.12"/>
    </pattern>
  </defs>
  <rect width="200" height="200" fill="#060614"/><rect width="200" height="200" fill="url(#egrid)"/>
  <rect x="40" y="50" width="50" height="35" fill="none" stroke="#4488ff" stroke-width="1" stroke-dasharray="4,2"/>
  <rect x="75" y="45" width="50" height="40" fill="none" stroke="#4488ff" stroke-width="1.2" stroke-dasharray="4,2"/>
  <rect x="110" y="50" width="50" height="35" fill="none" stroke="#4488ff" stroke-width="1" stroke-dasharray="4,2"/>
  <text x="65" y="72" text-anchor="middle" fill="#4488ff" font-size="6" font-family="monospace">DATA-01</text>
  <text x="100" y="70" text-anchor="middle" fill="#4488ff" font-size="6" font-family="monospace">MAIN-02</text>
  <text x="135" y="72" text-anchor="middle" fill="#4488ff" font-size="6" font-family="monospace">SYNC-03</text>
  <line x1="100" y1="85" x2="100" y2="110" stroke="#4488ff" stroke-width="0.8" stroke-dasharray="3,3"/>
  <rect x="70" y="110" width="60" height="25" fill="none" stroke="#4488ff" stroke-width="1.2"/>
  <text x="100" y="126" text-anchor="middle" fill="#4488ff" font-size="7" font-family="monospace">WORKSTATION</text>
  <rect x="60" y="140" width="80" height="20" fill="none" stroke="#4488ff" stroke-width="0.8" opacity="0.5"/>
  <rect x="65" y="145" width="20" height="4" fill="#4488ff" opacity="0.3"/><rect x="90" y="145" width="15" height="4" fill="#4488ff" opacity="0.3"/>
  <rect x="65" y="152" width="30" height="4" fill="#4488ff" opacity="0.2"/>
  <text x="15" y="15" fill="#4488ff" font-size="7" font-family="monospace" opacity="0.4">BLUEPRINT-WS</text>
  <rect x="5" y="5" width="190" height="190" fill="none" stroke="#4488ff" stroke-width="0.5" opacity="0.3"/>
</svg>