<svg xmlns="http://www.w3.org/2000/svg" viewBox="0 0 200 200">
  <defs><filter id="glow" x="-50%" y="-50%" width="200%" height="200%">
    <feGaussianBlur in="SourceGraphic" stdDeviation="3" result="blur"/>
    <feFlood flood-color="#4488ff" flood-opacity="0.6" result="color"/>
    <feComposite in="color" in2="blur" operator="in" result="glow"/>
    <feMerge><feMergeNode in="glow"/><feMergeNode in="glow"/><feMergeNode in="SourceGraphic"/></feMerge>
  </filter></defs>
  <rect width="200" height="200" fill="#0a0a14"/>
  <g opacity="0.3"><line x1="20" y1="30" x2="180" y2="30" stroke="#4488ff" stroke-width="0.3"/><line x1="20" y1="38" x2="180" y2="38" stroke="#4488ff" stroke-width="0.3"/><line x1="20" y1="46" x2="180" y2="46" stroke="#4488ff" stroke-width="0.3"/><line x1="20" y1="54" x2="180" y2="54" stroke="#4488ff" stroke-width="0.3"/><line x1="20" y1="62" x2="180" y2="62" stroke="#4488ff" stroke-width="0.3"/><line x1="20" y1="70" x2="180" y2="70" stroke="#4488ff" stroke-width="0.3"/><line x1="20" y1="78" x2="180" y2="78" stroke="#4488ff" stroke-width="0.3"/><line x1="20" y1="86" x2="180" y2="86" stroke="#4488ff" stroke-width="0.3"/><line x1="20" y1="94" x2="180" y2="94" stroke="#4488ff" stroke-width="0.3"/><line x1="20" y1="102" x2="180" y2="102" stroke="#4488ff" stroke-width="0.3"/><line x1="20" y1="110" x2="180" y2="110" stroke="#4488ff" stroke-width="0.3"/><line x1="20" y1="118" x2="180" y2="118" stroke="#4488ff" stroke-width="0.3"/><line x1="20" y1="126" x2="180" y2="126" stroke="#4488ff" stroke-width="0.3"/><line x1="20" y1="134" x2="180" y2="134" stroke="#4488ff" stroke-width="0.3"/><line x1="20" y1="142" x2="180" y2="142" stroke="#4488ff" stroke-width="0.3"/><line x1="20" y1="150" x2="180" y2="150" stroke="#4488ff" stroke-width="0.3"/><line x1="20" y1="158" x2="180" y2="158" stroke="#4488ff" stroke-width="0.3"/><line x1="20" y1="166" x2="180" y2="166" stroke="#4488ff" stroke-width="0.3"/><line x1="20" y1="174" x2="180" y2="174" stroke="#4488ff" stroke-width="0.3"/></g>
  <rect x="45" y="45" width="110" height="75" rx="6" fill="none" stroke="#4488ff" stroke-width="1.5" stroke-dasharray="8,4" filter="url(#glow)"/>
  <rect x="50" y="50" width="100" height="65" rx="4" fill="#060d1a" opacity="0.8"/>
  <rect x="55" y="55" width="40" height="5" fill="#4488ff" opacity="0.4"/><rect x="55" y="63" width="55" height="3" fill="#4488ff" opacity="0.2"/>
  <rect x="55" y="69" width="45" height="3" fill="#4488ff" opacity="0.2"/><rect x="55" y="75" width="65" height="3" fill="#4488ff" opacity="0.15"/>
  <polygon points="120,60 135,75 120,90" fill="none" stroke="#4488ff" stroke-width="1" opacity="0.5">
    <animate attributeName="opacity" values="0.5;1;0.5" dur="2s" repeatCount="indefinite"/>
  </polygon>
  <text x="100" y="105" text-anchor="middle" fill="#4488ff" font-size="6" font-family="monospace" opacity="0.5">HOLOGRAPHIC DISPLAY</text>
  <rect x="65" y="130" width="70" height="30" rx="3" fill="#060d1a" stroke="#4488ff" stroke-width="1" opacity="0.6"/>
  <g fill="#4488ff" opacity="0.2">
    <rect x="70" y="135" width="7" height="5" rx="1"/><rect x="79" y="135" width="7" height="5" rx="1"/>
    <rect x="88" y="135" width="7" height="5" rx="1"/><rect x="97" y="135" width="7" height="5" rx="1"/>
    <rect x="70" y="143" width="7" height="5" rx="1"/><rect x="79" y="143" width="7" height="5" rx="1"/>
    <rect x="88" y="143" width="7" height="5" rx="1"/><rect x="97" y="143" width="7" height="5" rx="1"/>
    <rect x="74" y="151" width="35" height="5" rx="1"/>
  </g>
</svg>