<svg xmlns="http://www.w3.org/2000/svg" viewBox="0 0 200 200">
  <defs><filter id="glow" x="-50%" y="-50%" width="200%" height="200%">
    <feGaussianBlur in="SourceGraphic" stdDeviation="4" result="blur"/>
    <feFlood flood-color="#00e5ff" flood-opacity="0.6" result="color"/>
    <feComposite in="color" in2="blur" operator="in" result="glow"/>
    <feMerge><feMergeNode in="glow"/><feMergeNode in="glow"/><feMergeNode in="SourceGraphic"/></feMerge>
  </filter><filter id="glow2" x="-50%" y="-50%" width="200%" height="200%">
    <feGaussianBlur in="SourceGraphic" stdDeviation="4" result="blur"/>
    <feFlood flood-color="#ff8800" flood-opacity="0.6" result="color"/>
    <feComposite in="color" in2="blur" operator="in" result="glow"/>
    <feMerge><feMergeNode in="glow"/><feMergeNode in="glow"/><feMergeNode in="SourceGraphic"/></feMerge>
  </filter></defs>
  <rect width="200" height="200" fill="#0a0a14"/>
  <rect x="40" y="85" width="120" height="15" rx="3" fill="#332200" stroke="#ff8800" stroke-width="1.5" filter="url(#glow2)"/>
  <rect x="42" y="88" width="116" height="9" rx="2" fill="#ff8800" opacity="0.3"/>
  <polygon points="100,55 130,85 70,85" fill="#ffaa33" stroke="#ff8800" stroke-width="1.5" filter="url(#glow2)" opacity="0.8"/>
  <circle cx="90" cy="74" r="4" fill="#ff4444" opacity="0.6"/><circle cx="108" cy="78" r="3" fill="#ff4444" opacity="0.5"/>
  <circle cx="98" cy="70" r="3" fill="#88cc44" opacity="0.5"/>
  <rect x="60" y="110" width="80" height="40" rx="4" fill="#0a1a2a" stroke="#00e5ff" stroke-width="2" filter="url(#glow)"/>
  <rect x="70" y="120" width="20" height="4" fill="#00e5ff" opacity="0.4"/>
  <rect x="70" y="128" width="35" height="3" fill="#00e5ff" opacity="0.3"/>
  <rect x="70" y="134" width="25" height="3" fill="#00e5ff" opacity="0.2"/>
  <circle cx="125" cy="130" r="10" fill="none" stroke="#00e5ff" stroke-width="1.5"/>
  <path d="M120 130 L124 135 L132 125" stroke="#00e5ff" stroke-width="1.5" fill="none"/>
  <circle cx="45" cy="55" r="6" fill="#ff4466" opacity="0.6"><animate attributeName="cy" values="55;45;55" dur="2s" repeatCount="indefinite"/></circle>
  <circle cx="155" cy="50" r="5" fill="#44ff88" opacity="0.5"><animate attributeName="cy" values="50;40;50" dur="2.5s" repeatCount="indefinite"/></circle>
  <circle cx="100" cy="40" r="4" fill="#ffcc00" opacity="0.5"><animate attributeName="cy" values="40;32;40" dur="1.8s" repeatCount="indefinite"/></circle>
  <text x="100" y="192" text-anchor="middle" fill="#00e5ff" font-size="10" font-family="monospace" opacity="0.7">IT SUPPORT</text>
</svg>