<svg xmlns="http://www.w3.org/2000/svg" viewBox="0 0 200 200">
  <defs><filter id="glow" x="-50%" y="-50%" width="200%" height="200%">
    <feGaussianBlur in="SourceGraphic" stdDeviation="3" result="blur"/>
    <feFlood flood-color="#ff4444" flood-opacity="0.6" result="color"/>
    <feComposite in="color" in2="blur" operator="in" result="glow"/>
    <feMerge><feMergeNode in="glow"/><feMergeNode in="glow"/><feMergeNode in="SourceGraphic"/></feMerge>
  </filter><pattern id="ag" width="20" height="20" patternUnits="userSpaceOnUse"><rect width="20" height="20" fill="none" stroke="#ff4444" stroke-width="0.15" opacity="0.1"/></pattern></defs>
  <rect width="200" height="200" fill="#060614"/><rect width="200" height="200" fill="url(#ag)"/>
  <rect x="65" y="35" width="70" height="50" rx="4" fill="none" stroke="#ff4444" stroke-width="1" stroke-dasharray="4,2"/>
  <circle cx="88" cy="55" r="7" fill="none" stroke="#ff4444" stroke-width="0.8"/><circle cx="112" cy="55" r="7" fill="none" stroke="#ff4444" stroke-width="0.8"/>
  <rect x="75" y="85" width="50" height="55" fill="none" stroke="#ff4444" stroke-width="1.2" stroke-dasharray="4,2"/>
  <circle cx="100" cy="108" r="12" fill="none" stroke="#ff4444" stroke-width="0.8" stroke-dasharray="3,3"/>
  <text x="100" y="112" text-anchor="middle" fill="#ff4444" font-size="7" font-family="monospace">CORE</text>
  <line x1="75" y1="100" x2="50" y2="100" stroke="#ff4444" stroke-width="0.8" stroke-dasharray="3,3"/>
  <line x1="125" y1="100" x2="150" y2="100" stroke="#ff4444" stroke-width="0.8" stroke-dasharray="3,3"/>
  <rect x="35" y="95" width="15" height="10" fill="none" stroke="#ff4444" stroke-width="0.8"/>
  <rect x="150" y="95" width="15" height="10" fill="none" stroke="#ff4444" stroke-width="0.8"/>
  <rect x="82" y="140" width="14" height="30" fill="none" stroke="#ff4444" stroke-width="0.8" stroke-dasharray="3,3"/>
  <rect x="104" y="140" width="14" height="30" fill="none" stroke="#ff4444" stroke-width="0.8" stroke-dasharray="3,3"/>
  <text x="15" y="15" fill="#ff4444" font-size="7" font-family="monospace" opacity="0.4">AI-MECH-SPEC</text>
  <rect x="5" y="5" width="190" height="190" fill="none" stroke="#ff4444" stroke-width="0.5" opacity="0.3"/>
</svg>